HIERARCHY
ROOT Hips
{
	OFFSET 0.00000 0.00000 0.00000
	CHANNELS 6 Xposition Yposition Zposition Zrotation Yrotation Xrotation 
	JOINT LHipJoint
	{
		OFFSET 0 0 0
		CHANNELS 3 Zrotation Yrotation Xrotation
		JOINT LeftHip
		{
			OFFSET 1.48416 -1.82041 0.59464
			CHANNELS 3 Zrotation Yrotation Xrotation
			JOINT LeftKnee
			{
				OFFSET 2.43280 -6.68407 0.00000
				CHANNELS 3 Zrotation Yrotation Xrotation
				JOINT LeftAnkle
				{
					OFFSET 2.68325 -7.37216 0.00000
					CHANNELS 3 Zrotation Yrotation Xrotation
					JOINT LeftToe
					{
						OFFSET 0.15365 -0.42214 1.91990
						CHANNELS 3 Zrotation Yrotation Xrotation
						End Site
						{
							OFFSET 0.00000 -0.00000 0.99320
						}
					}
				}
			}
		}
	}
	JOINT RHipJoint
	{
		OFFSET 0 0 0
		CHANNELS 3 Zrotation Yrotation Xrotation
		JOINT RightHip
		{
			OFFSET -1.70852 -1.82040 0.59464
			CHANNELS 3 Zrotation Yrotation Xrotation
			JOINT RightKnee
			{
				OFFSET -2.50396 -6.87957 0.00000
				CHANNELS 3 Zrotation Yrotation Xrotation
				JOINT RightAnkle
				{
					OFFSET -2.67204 -7.34139 0.00000
					CHANNELS 3 Zrotation Yrotation Xrotation
					JOINT RightToe
					{
						OFFSET -0.17346 -0.47657 2.02009
						CHANNELS 3 Zrotation Yrotation Xrotation
						End Site
						{
							OFFSET -0.00000 -0.00000 1.04609
						}
					}
				}
			}
		}
	}
	JOINT lowerback
	{
		OFFSET 0 0 0
		CHANNELS 3 Zrotation Yrotation Xrotation
		JOINT Chest
		{
			OFFSET -0.01022 1.99636 -0.30653
			CHANNELS 3 Zrotation Yrotation Xrotation
			JOINT Chest2
			{
				OFFSET -0.01683 2.01212 0.04808
				CHANNELS 3 Zrotation Yrotation Xrotation
				JOINT lowerneck
				{
					OFFSET 0 0 0
					CHANNELS 3 Zrotation Yrotation Xrotation
					JOINT Neck
					{
						OFFSET -0.03080 1.91178 0.03911
						CHANNELS 3 Zrotation Yrotation Xrotation
						JOINT Head
						{
							OFFSET 0.10605 1.89839 -0.23433
							CHANNELS 3 Zrotation Yrotation Xrotation
							End Site
							{
								OFFSET 0.03474 1.92469 -0.08609
							}
						}
					}
				}
				JOINT LeftCollar
				{
					OFFSET 0 0 0
					CHANNELS 3 Zrotation Yrotation Xrotation
					JOINT LeftShoulder
					{
						OFFSET 3.78977 1.27972 -0.24661
CHANNELS 3 Zrotation Xrotation Yrotation
						JOINT LeftElbow
						{
OFFSET 0 -5.641470 -0.000000
CHANNELS 3 Zrotation Xrotation Yrotation
							JOINT LeftWrist
							{
OFFSET 0 -2.864440 -0.000000
CHANNELS 3 Zrotation Xrotation Yrotation
								JOINT lhand
								{
									OFFSET 0 0 0
CHANNELS 3 Zrotation Xrotation Yrotation
									JOINT LFingers
									{
OFFSET 0 -0.722120 -0.000000
CHANNELS 3 Zrotation Xrotation Yrotation
										End Site
										{
OFFSET 0 -0.582190 -0.000000
										}
									}
								}
								JOINT LThumb
								{
OFFSET 0 0.000000 0.000000
CHANNELS 3 Zrotation Xrotation Yrotation
									End Site
									{
OFFSET 0 -0.591080 0.591080
									}
								}
							}
						}
					}
				}
				JOINT RightCollar
				{
					OFFSET 0 0 0
					CHANNELS 3 Zrotation Yrotation Xrotation
					JOINT RightShoulder
					{
						OFFSET -3.41176 1.18605 -0.57927
CHANNELS 3 Zrotation Xrotation Yrotation
						JOINT RightElbow
						{
OFFSET 0 -5.447290 -0.000000
CHANNELS 3 Zrotation Xrotation Yrotation
							JOINT RightWrist
							{
OFFSET 0 -3.088210 -0.000000
CHANNELS 3 Zrotation Xrotation Yrotation
								JOINT rhand
								{
									OFFSET 0 0 0
CHANNELS 3 Zrotation Xrotation Yrotation
									JOINT RFingers
									{
OFFSET 0 -0.821050 -0.000000
CHANNELS 3 Zrotation Xrotation Yrotation
										End Site
										{
OFFSET 0 -0.661950 -0.000000
										}
									}
								}
								JOINT RThumb
								{
OFFSET 0 0.000000 0.000000
CHANNELS 3 Zrotation Xrotation Yrotation
									End Site
									{
OFFSET 0 -0.672060 0.672060
									}
								}
							}
						}
					}
				}
			}
		}
	}
}
MOTION
Frames: 9
Frame Time: 0.008333333333333333
2.747300 17.676900 0.051900 -174.167000 67.863000 -174.237000 0.000000 0.000000 0.000000 -14.871200 -6.523100 -6.824400 0.866300 5.934700 16.595200 -0.855900 -16.932000 0.747300 0.365700 3.884800 10.752800 0.000000 0.000000 0.000000 21.011800 -10.763400 5.347200 -0.015100 -0.794100 2.182400 -1.064600 -6.320300 -22.744800 -0.003300 -0.371800 1.021500 1.485300 0.849700 5.116900 -2.655700 1.157400 -3.976000 -3.752600 0.451300 -6.948700 -3.915300 -2.773300 -6.844900 6.438700 -4.005000 13.608200 2.394400 -1.644200 5.427400 -0.000000 -0.000000 0.000000 23.527800 -31.455400 -46.261400 101.338700 -59.508600 69.803400 -8.332000 -65.665600 -23.553100 0.000000 0.000000 0.000000 -7.125000 0.000000 0.000000 -36.470500 49.775500 4.875200 -0.000000 -0.000000 0.000000 -4.982500 10.335300 28.962100 -16.966400 -26.813400 -4.072100 -5.498800 18.078000 -9.252900 0.000000 0.000000 0.000000 7.125000 0.000000 -0.000000 15.276300 20.812700 9.177900
2.709175 17.685284 0.091901 -174.109957 65.518709 -173.979175 0.000000 0.000000 0.000000 -14.503196 -7.580341 -7.657545 0.895092 6.030120 16.871875 -0.996032 -17.803932 2.327472 0.438551 4.249435 11.779432 0.000000 0.000000 0.000000 21.323761 -13.296732 5.551796 0.000000 0.000000 0.000000 -0.968980 -6.715270 -22.186100 -0.031697 -1.148521 3.157554 1.626124 0.760577 5.482808 -2.685306 1.052504 -4.188249 -3.868683 0.383097 -7.393985 -4.227263 -2.484683 -6.349633 6.632805 -3.616324 15.398303 2.552889 -1.408170 5.886564 0.000000 0.000000 0.000000 29.859303 -44.794165 -37.581677 118.193854 -56.771663 84.151887 -9.662276 -72.385430 -24.592719 0.000000 0.000000 0.000000 -7.125000 0.000000 0.000000 -38.313146 50.412697 5.866986 0.000000 0.000000 0.000000 -5.666460 11.578360 29.891392 -17.384179 -27.361425 -4.262434 -5.003680 18.076365 -9.153359 0.000000 0.000000 0.000000 7.125000 0.000000 0.000000 15.631695 20.920409 9.368251
2.677611 17.675918 0.132131 -174.092002 64.042579 -173.893730 0.000000 0.000000 0.000000 -14.224098 -8.025417 -8.434494 0.948495 6.202390 17.372879 -1.108222 -18.547151 3.407694 0.476133 4.425452 12.276664 0.000000 0.000000 0.000000 21.725798 -14.667980 4.989592 0.000000 0.000000 0.000000 -0.973260 -6.500823 -22.073726 -0.015013 -0.790659 2.172870 1.711651 0.831277 6.033111 -2.794968 1.150606 -4.212193 -4.062265 0.416476 -7.729720 -4.072728 -2.185167 -5.137537 6.719565 -3.222339 15.056919 2.590636 -1.216127 5.545722 0.000000 0.000000 0.000000 40.218285 -56.905037 -23.570359 122.121069 -55.717711 87.417649 -11.108077 -78.861906 -25.470269 0.000000 0.000000 0.000000 -7.125000 0.000000 0.000000 -40.172310 50.879901 6.762891 0.000000 0.000000 0.000000 -6.195850 12.307614 30.577082 -17.746012 -27.830715 -4.430014 -4.530182 17.523695 -8.872262 0.000000 0.000000 0.000000 7.125000 0.000000 0.000000 15.989790 21.201516 9.494051
2.666607 17.674753 0.157278 -174.522713 63.286089 -174.229922 0.000000 0.000000 0.000000 -14.315873 -8.641063 -8.381824 0.921235 6.115163 17.118829 -1.102144 -18.427348 3.830445 0.528321 4.657860 12.935136 0.000000 0.000000 0.000000 21.688722 -15.378916 4.683390 0.000000 0.000000 0.000000 -0.988795 -6.224983 -22.021651 -0.031996 -1.147712 3.155365 1.394982 0.856515 6.398173 -2.651162 1.160239 -4.123113 -3.739469 0.438729 -7.852762 -4.454751 -1.738289 -3.892776 6.825803 -2.581068 13.936668 2.726498 -0.957968 4.954431 0.000000 0.000000 0.000000 56.748862 -64.248539 -4.511899 121.422957 -55.918409 86.840158 -12.710029 -81.063134 -26.301436 0.000000 0.000000 0.000000 -7.125000 0.000000 0.000000 -42.150775 51.265525 7.665775 0.000000 0.000000 0.000000 -6.938412 12.521472 30.379677 -17.907075 -28.038082 -4.505486 -4.864701 17.814873 -8.427321 0.000000 0.000000 0.000000 7.125000 0.000000 0.000000 15.799212 21.624468 9.213362
2.664329 17.676827 0.172064 -174.575317 62.854878 -174.224629 0.000000 0.000000 0.000000 -14.260338 -8.802611 -8.545705 0.923563 6.122650 17.140560 -1.130718 -18.610269 4.182954 0.518725 4.615884 12.816113 0.000000 0.000000 0.000000 21.815324 -15.764162 4.462268 0.000000 0.000000 0.000000 -0.944813 -6.519504 -21.833126 -0.010767 -0.671320 1.844955 1.384360 0.890565 6.595693 -2.651089 1.203807 -4.080262 -3.743789 0.458937 -7.918788 -4.753380 -1.085641 -1.700824 7.749983 -1.755208 11.565152 3.093207 -0.595807 3.819797 0.000000 0.000000 0.000000 75.509266 -67.001658 13.700694 119.541239 -56.430928 85.276910 -14.232303 -83.428751 -26.153769 0.000000 0.000000 0.000000 -7.125000 0.000000 0.000000 -43.314111 50.894208 7.507253 0.000000 0.000000 0.000000 -7.264038 12.675432 29.925340 -18.047599 -28.218036 -4.571712 -4.446949 17.916793 -8.129962 0.000000 0.000000 0.000000 7.125000 0.000000 0.000000 16.123589 21.918328 9.305308
2.667809 17.679546 0.172232 -174.736823 62.443896 -174.399957 0.000000 0.000000 0.000000 -14.326599 -9.249676 -8.413844 0.923117 6.121150 17.136436 -1.113054 -18.451112 4.300572 0.578343 4.869389 13.536497 0.000000 0.000000 0.000000 21.750454 -16.182570 4.409456 0.000000 0.000000 0.000000 -0.955599 -6.332196 -21.799389 -0.028128 -1.075364 2.956260 1.533436 0.910201 6.698269 -2.716412 1.238269 -3.861652 -3.898591 0.469642 -7.736878 -4.737845 -0.367399 0.959084 7.861994 -0.746688 8.557304 3.437324 -0.209304 2.661897 0.000000 0.000000 0.000000 90.296473 -67.187680 27.206241 118.259990 -56.756043 84.207352 -16.050607 -85.433459 -26.666271 0.000000 0.000000 0.000000 -7.125000 0.000000 0.000000 -45.216550 50.978453 8.085096 0.000000 0.000000 0.000000 -7.262999 12.693746 28.799332 -18.239100 -28.462259 -4.662600 -4.807067 17.632931 -7.900594 0.000000 0.000000 0.000000 7.125000 0.000000 0.000000 15.893355 22.133911 9.080012
2.670402 17.669999 0.179844 -175.120608 62.111656 -174.768888 0.000000 0.000000 0.000000 -14.474511 -9.263784 -8.534836 0.935855 6.161907 17.254963 -1.146912 -18.695166 4.540583 0.560322 4.794694 13.323917 0.000000 0.000000 0.000000 21.607835 -16.537271 4.370644 0.000000 0.000000 0.000000 -0.993300 -5.927367 -21.861276 -0.047979 -1.411513 3.881906 1.450130 0.848478 6.759326 -2.850972 1.137503 -3.424790 -3.970238 0.431398 -7.310656 -4.505169 0.425723 3.251733 7.938955 0.349619 5.958293 3.367957 0.258638 1.309607 0.000000 0.000000 0.000000 100.632756 -66.149692 36.391783 117.538703 -56.930911 83.603461 -17.612262 -87.525203 -27.261384 0.000000 0.000000 0.000000 -7.125000 0.000000 0.000000 -46.969944 51.157749 8.784418 0.000000 0.000000 0.000000 -7.354843 12.260937 28.989065 -18.257511 -28.485615 -4.671443 -4.975343 17.886910 -7.970298 0.000000 0.000000 0.000000 7.125000 0.000000 0.000000 15.767218 22.063872 9.028527
2.657239 17.670500 0.193905 -174.984786 61.776098 -174.515214 0.000000 0.000000 0.000000 -14.317527 -9.581699 -8.839416 0.955971 6.225960 17.441389 -1.158189 -18.767586 4.688283 0.562838 4.805165 13.353740 0.000000 0.000000 0.000000 21.852047 -16.753098 3.980392 -0.000171 -0.056841 0.156207 -0.964563 -6.152560 -21.756390 -0.016497 -0.829122 2.278839 1.488877 0.733583 7.132182 -2.808694 0.986647 -3.062777 -3.928521 0.359877 -7.151157 -4.747368 1.049157 5.267282 8.051701 1.201497 3.841058 3.415722 0.606382 0.215696 0.000000 0.000000 0.000000 107.310057 -64.490629 42.406676 117.400114 -56.963847 83.487350 -18.947159 -89.637657 -27.646108 0.000000 0.000000 0.000000 -7.125000 0.000000 0.000000 -48.364944 51.210466 9.247979 0.000000 0.000000 0.000000 -7.822280 12.093211 29.973819 -18.481442 -28.769235 -4.778713 -4.670068 17.641637 -7.841844 0.000000 0.000000 0.000000 7.125000 0.000000 0.000000 15.996321 22.192626 9.121225
2.624343 17.675218 0.221645 -174.501516 61.594516 -173.728404 0.000000 0.000000 0.000000 -13.932361 -10.017191 -9.379789 0.964221 6.251991 17.517385 -1.136187 -18.595089 4.658636 0.533066 4.677946 12.992428 0.000000 0.000000 0.000000 22.436343 -16.466150 2.686057 -0.006649 -0.519601 1.427869 -1.024691 -5.774828 -22.038698 -0.019737 -0.907268 2.493765 1.531800 0.779933 7.962583 -2.818855 1.051927 -2.738014 -3.987415 0.388033 -7.277969 -4.571986 1.235378 6.694437 8.052650 1.497863 1.961867 3.370286 0.696031 -0.655408 0.000000 0.000000 0.000000 112.826210 -63.347100 47.343866 117.061387 -57.043456 83.203223 -19.184866 -88.976729 -27.082603 0.000000 0.000000 0.000000 -7.125000 0.000000 0.000000 -48.086486 50.754878 8.534998 0.000000 0.000000 0.000000 -7.829954 12.016697 29.906474 -18.637128 -28.965268 -4.853849 -4.333244 17.748155 -8.010931 0.000000 0.000000 0.000000 7.125000 0.000000 0.000000 16.216134 22.034721 9.318203
